<svg width="420" height="320" viewBox="0 0 420 320" fill="none" xmlns="http://www.w3.org/2000/svg">
  <defs>
    <linearGradient id="screen" x1="0" y1="0" x2="1" y2="1">
      <stop offset="0%" stop-color="#DBEAFE"/>
      <stop offset="100%" stop-color="#BFDBFE"/>
    </linearGradient>
    <linearGradient id="base" x1="0" y1="0" x2="1" y2="1">
      <stop offset="0%" stop-color="#93C5FD"/>
      <stop offset="100%" stop-color="#60A5FA"/>
    </linearGradient>
  </defs>

  <ellipse cx="210" cy="270" rx="130" ry="20" fill="#1E3A8A" opacity="0.18"/>

  <rect x="92" y="88" width="186" height="116" rx="12" fill="#1E40AF"/>
  <rect x="102" y="98" width="166" height="90" rx="8" fill="url(#screen)"/>
  <rect x="78" y="206" width="214" height="16" rx="8" fill="url(#base)"/>
  <rect x="150" y="222" width="72" height="8" rx="4" fill="#93C5FD"/>

  <rect x="125" y="118" width="52" height="8" rx="4" fill="#3B82F6"/>
  <rect x="125" y="132" width="84" height="8" rx="4" fill="#60A5FA"/>
  <rect x="125" y="146" width="64" height="8" rx="4" fill="#93C5FD"/>

  <circle cx="243" cy="129" r="18" fill="#22C55E" opacity="0.2"/>
  <path d="M235 129L241 135L252 123" stroke="#16A34A" stroke-width="4" stroke-linecap="round" stroke-linejoin="round"/>

  <rect x="286" y="150" width="56" height="74" rx="8" fill="#EFF6FF"/>
  <rect x="296" y="162" width="36" height="6" rx="3" fill="#93C5FD"/>
  <rect x="296" y="174" width="30" height="6" rx="3" fill="#BFDBFE"/>
  <rect x="296" y="186" width="34" height="6" rx="3" fill="#DBEAFE"/>
  <rect x="300" y="198" width="28" height="18" rx="4" fill="#3B82F6" opacity="0.2"/>

  <rect x="62" y="154" width="52" height="70" rx="8" fill="#EFF6FF"/>
  <rect x="71" y="167" width="34" height="6" rx="3" fill="#93C5FD"/>
  <rect x="71" y="179" width="28" height="6" rx="3" fill="#BFDBFE"/>
  <rect x="71" y="191" width="30" height="6" rx="3" fill="#DBEAFE"/>
  <circle cx="88" cy="210" r="8" fill="#F59E0B" opacity="0.6"/>
</svg>

